<svg width="288" height="55" viewBox="0 0 288 55" fill="none" xmlns="http://www.w3.org/2000/svg">
<g filter="url(#filter0_d_2_579)">
<path d="M42.65 10.75V43.9H39.2V15.6L28 31.8H25.1L13.9 15.6V44H10.5V10.75H14.7L26.55 27.9L38.4 10.75H42.65ZM59.8082 44.25C57.5415 44.25 55.4249 43.6833 53.4582 42.55C51.5249 41.4167 49.9915 39.8833 48.8582 37.95C47.7249 35.9833 47.1582 33.8667 47.1582 31.6C47.1582 29.3 47.7249 27.1833 48.8582 25.25C49.9915 23.2833 51.5249 21.7333 53.4582 20.6C55.4249 19.4333 57.5415 18.85 59.8082 18.85C62.1082 18.85 64.2249 19.4333 66.1582 20.6C68.1249 21.7333 69.6749 23.2833 70.8082 25.25C71.9749 27.1833 72.5582 29.3 72.5582 31.6C72.5582 33.8667 71.9749 35.9833 70.8082 37.95C69.6749 39.8833 68.1249 41.4167 66.1582 42.55C64.2249 43.6833 62.1082 44.25 59.8082 44.25ZM59.8082 40.9C61.5082 40.9 63.0582 40.4833 64.4582 39.65C65.8915 38.8167 67.0249 37.6833 67.8582 36.25C68.6915 34.8167 69.1082 33.2667 69.1082 31.6C69.1082 29.9 68.6915 28.3333 67.8582 26.9C67.0249 25.4667 65.8915 24.3333 64.4582 23.5C63.0582 22.6667 61.5082 22.25 59.8082 22.25C58.1415 22.25 56.5915 22.6667 55.1582 23.5C53.7582 24.3333 52.6415 25.4667 51.8082 26.9C50.9749 28.3333 50.5582 29.9 50.5582 31.6C50.5582 33.2667 50.9749 34.8167 51.8082 36.25C52.6415 37.6833 53.7582 38.8167 55.1582 39.65C56.5915 40.4833 58.1415 40.9 59.8082 40.9ZM97.4125 19.1L87.5625 44H83.9125L74.0625 19.1H77.7125L85.7625 39.25L93.7625 19.1H97.4125ZM104.156 12.05C104.756 12.05 105.273 12.2667 105.706 12.7C106.14 13.1333 106.356 13.65 106.356 14.25C106.356 14.8833 106.14 15.4167 105.706 15.85C105.273 16.2833 104.756 16.5 104.156 16.5C103.523 16.5 102.99 16.2833 102.556 15.85C102.123 15.4167 101.906 14.8833 101.906 14.25C101.906 13.65 102.123 13.1333 102.556 12.7C102.99 12.2667 103.523 12.05 104.156 12.05ZM105.856 19V44H102.406V19H105.856ZM112.965 33.35C113.365 35.4833 114.415 37.2667 116.115 38.7C117.815 40.1 119.765 40.8 121.965 40.8C123.599 40.8 125.099 40.4167 126.465 39.65C127.832 38.8833 128.932 37.8333 129.765 36.5L132.715 38.2C131.582 40.0333 130.065 41.5 128.165 42.6C126.265 43.7 124.199 44.25 121.965 44.25C119.699 44.25 117.599 43.6833 115.665 42.55C113.732 41.4167 112.199 39.8833 111.065 37.95C109.932 36.0167 109.365 33.9167 109.365 31.65C109.365 29.35 109.932 27.25 111.065 25.35C112.199 23.4167 113.732 21.8833 115.665 20.75C117.599 19.6167 119.699 19.05 121.965 19.05C124.232 19.05 126.332 19.6167 128.265 20.75C130.199 21.8833 131.732 23.4167 132.865 25.35C133.999 27.25 134.565 29.35 134.565 31.65C134.565 32.05 134.532 32.6167 134.465 33.35H112.965ZM121.965 22.45C120.499 22.45 119.065 22.8 117.665 23.5C116.265 24.1667 115.132 25.1 114.265 26.3C113.399 27.4667 112.965 28.7333 112.965 30.1H130.965C130.965 28.7333 130.532 27.4667 129.665 26.3C128.799 25.1 127.665 24.1667 126.265 23.5C124.899 22.8 123.465 22.45 121.965 22.45ZM141.576 37.3C141.843 38.2333 142.26 38.9667 142.826 39.5C143.76 40.3667 145.126 40.8 146.926 40.8C148.493 40.8 149.76 40.4333 150.726 39.7C151.693 38.9667 152.176 38.0167 152.176 36.85C152.176 35.75 151.96 34.9333 151.526 34.4C151.093 33.8667 150.526 33.5333 149.826 33.4C149.16 33.2333 148.226 33.1333 147.026 33.1C145.293 33 143.876 32.8167 142.776 32.55C141.676 32.25 140.676 31.6 139.776 30.6C138.676 29.2333 138.126 27.7333 138.126 26.1C138.126 25.7 138.143 25.4 138.176 25.2C138.443 23.1 139.326 21.5 140.826 20.4C142.326 19.2667 144.343 18.7 146.876 18.7H146.926C148.793 18.7 150.31 19.05 151.476 19.75C152.643 20.45 153.543 21.3 154.176 22.3C154.843 23.4 155.26 24.55 155.426 25.75H151.926C151.86 25.2833 151.643 24.7333 151.276 24.1C150.443 22.8333 148.993 22.1667 146.926 22.1C144.826 22.1 143.443 22.45 142.776 23.15C142.11 23.85 141.71 24.6667 141.576 25.6C141.543 25.7333 141.526 25.9167 141.526 26.15C141.526 26.95 141.81 27.6667 142.376 28.3C142.843 28.8667 143.443 29.25 144.176 29.45C144.91 29.6167 145.96 29.75 147.326 29.85C148.426 29.9167 149.36 30.0167 150.126 30.15C150.926 30.2833 151.676 30.5333 152.376 30.9C154.543 32.0667 155.626 34.05 155.626 36.85C155.626 37.8167 155.426 38.75 155.026 39.65C154.66 40.5167 154.126 41.2833 153.426 41.95C151.86 43.4833 149.71 44.25 146.976 44.25C144.31 44.25 142.143 43.5 140.476 42C139.176 40.7333 138.376 39.1667 138.076 37.3H141.576ZM202.619 14.1H194.069V44H190.669V14.1H182.119V10.75H202.619V14.1ZM207.379 12.05C207.979 12.05 208.496 12.2667 208.929 12.7C209.362 13.1333 209.579 13.65 209.579 14.25C209.579 14.8833 209.362 15.4167 208.929 15.85C208.496 16.2833 207.979 16.5 207.379 16.5C206.746 16.5 206.212 16.2833 205.779 15.85C205.346 15.4167 205.129 14.8833 205.129 14.25C205.129 13.65 205.346 13.1333 205.779 12.7C206.212 12.2667 206.746 12.05 207.379 12.05ZM209.079 19V44H205.629V19H209.079ZM238.702 19C240.368 19 241.902 19.4167 243.302 20.25C244.702 21.05 245.802 22.1667 246.602 23.6C247.435 25 247.852 26.5333 247.852 28.2V44H244.452V28.2C244.452 26.6 243.885 25.25 242.752 24.15C241.618 23.0167 240.268 22.45 238.702 22.45C237.102 22.45 235.735 23.0167 234.602 24.15C233.502 25.25 232.952 26.5833 232.952 28.15V28.2V44H229.502V28.15C229.502 26.5833 228.935 25.25 227.802 24.15C226.668 23.0167 225.318 22.45 223.752 22.45C222.185 22.45 220.835 23.0333 219.702 24.2C218.568 25.3333 218.002 26.7 218.002 28.3V44H214.602V19.65H218.002V21.6C218.668 20.8 219.518 20.1667 220.552 19.7C221.618 19.2333 222.685 19 223.752 19C225.252 19 226.652 19.35 227.952 20.05C229.285 20.75 230.368 21.6833 231.202 22.85C232.068 21.6833 233.152 20.75 234.452 20.05C235.785 19.35 237.202 19 238.702 19ZM255.934 33.35C256.334 35.4833 257.384 37.2667 259.084 38.7C260.784 40.1 262.734 40.8 264.934 40.8C266.567 40.8 268.067 40.4167 269.434 39.65C270.801 38.8833 271.901 37.8333 272.734 36.5L275.684 38.2C274.551 40.0333 273.034 41.5 271.134 42.6C269.234 43.7 267.167 44.25 264.934 44.25C262.667 44.25 260.567 43.6833 258.634 42.55C256.701 41.4167 255.167 39.8833 254.034 37.95C252.901 36.0167 252.334 33.9167 252.334 31.65C252.334 29.35 252.901 27.25 254.034 25.35C255.167 23.4167 256.701 21.8833 258.634 20.75C260.567 19.6167 262.667 19.05 264.934 19.05C267.201 19.05 269.301 19.6167 271.234 20.75C273.167 21.8833 274.701 23.4167 275.834 25.35C276.967 27.25 277.534 29.35 277.534 31.65C277.534 32.05 277.501 32.6167 277.434 33.35H255.934ZM264.934 22.45C263.467 22.45 262.034 22.8 260.634 23.5C259.234 24.1667 258.101 25.1 257.234 26.3C256.367 27.4667 255.934 28.7333 255.934 30.1H273.934C273.934 28.7333 273.501 27.4667 272.634 26.3C271.767 25.1 270.634 24.1667 269.234 23.5C267.867 22.8 266.434 22.45 264.934 22.45Z" fill="white"/>
</g>
<defs>
<filter id="filter0_d_2_579" x="0.5" y="0.75" width="287.034" height="53.5" filterUnits="userSpaceOnUse" color-interpolation-filters="sRGB">
<feFlood flood-opacity="0" result="BackgroundImageFix"/>
<feColorMatrix in="SourceAlpha" type="matrix" values="0 0 0 0 0 0 0 0 0 0 0 0 0 0 0 0 0 0 127 0" result="hardAlpha"/>
<feOffset/>
<feGaussianBlur stdDeviation="5"/>
<feColorMatrix type="matrix" values="0 0 0 0 1 0 0 0 0 1 0 0 0 0 1 0 0 0 1 0"/>
<feBlend mode="normal" in2="BackgroundImageFix" result="effect1_dropShadow_2_579"/>
<feBlend mode="normal" in="SourceGraphic" in2="effect1_dropShadow_2_579" result="shape"/>
</filter>
</defs>
</svg>
